<svg width="15" height="17" viewBox="0 0 15 17" fill="none" xmlns="http://www.w3.org/2000/svg">
<path d="M12.75 5.25V13.95C12.75 14.4274 12.5604 14.8852 12.2228 15.2228C11.8852 15.5604 11.4274 15.75 10.95 15.75H4.05C3.57261 15.75 3.11477 15.5604 2.77721 15.2228C2.43964 14.8852 2.25 14.4274 2.25 13.95V5.25M10.5 3V1.65C10.5 1.155 10.095 0.75 9.6 0.75H5.4C4.905 0.75 4.5 1.155 4.5 1.65V3M10.5 3H4.5M10.5 3H14.25M4.5 3H0.75M7.5 7.5V12M9.75 7.5V12M5.25 7.5V12" stroke="white" stroke-width="1.5" stroke-miterlimit="10" stroke-linecap="round" stroke-linejoin="round"/>
</svg>
