<svg width="11" height="17" viewBox="0 0 11 17" fill="none" xmlns="http://www.w3.org/2000/svg">
<path d="M10.4167 11.4583C10.4167 12.9028 9.90972 14.1319 8.89583 15.1458C7.88194 16.1597 6.65278 16.6667 5.20833 16.6667C3.76389 16.6667 2.53472 16.1597 1.52083 15.1458C0.506944 14.1319 0 12.9028 0 11.4583V3.75C0 2.70833 0.364722 1.82306 1.09417 1.09417C1.82361 0.365278 2.70889 0.000556189 3.75 6.33714e-07C4.79111 -0.000554922 5.67667 0.364167 6.40667 1.09417C7.13667 1.82417 7.50111 2.70944 7.5 3.75V11.0417C7.5 11.6806 7.27778 12.2222 6.83333 12.6667C6.38889 13.1111 5.84722 13.3333 5.20833 13.3333C4.56945 13.3333 4.02778 13.1111 3.58333 12.6667C3.13889 12.2222 2.91667 11.6806 2.91667 11.0417V3.33333H4.58333V11.0417C4.58333 11.2222 4.6425 11.3717 4.76083 11.49C4.87917 11.6083 5.02833 11.6672 5.20833 11.6667C5.38833 11.6661 5.53778 11.6069 5.65667 11.4892C5.77556 11.3714 5.83444 11.2222 5.83333 11.0417V3.75C5.81945 3.16667 5.61472 2.67361 5.21917 2.27083C4.82361 1.86806 4.33389 1.66667 3.75 1.66667C3.16611 1.66667 2.67306 1.86806 2.27083 2.27083C1.86861 2.67361 1.66722 3.16667 1.66667 3.75V11.4583C1.65278 12.4444 1.99306 13.2814 2.6875 13.9692C3.38195 14.6569 4.22222 15.0006 5.20833 15C6.18056 15 7.00695 14.6564 7.6875 13.9692C8.36806 13.2819 8.72222 12.445 8.75 11.4583V3.33333H10.4167V11.4583Z" fill="white"/>
</svg>
