<svg width="55" height="48" viewBox="0 0 55 48" fill="none" xmlns="http://www.w3.org/2000/svg">
<path fill-rule="evenodd" clip-rule="evenodd" d="M27.003 5.17815C27.1704 4.96935 27.3538 4.91073 27.4992 4.91073C27.6445 4.91073 27.828 4.96935 27.9953 5.17815C31.1011 9.05374 35.2925 15.8005 37.5811 23.2936C37.8277 24.1011 38.4718 24.7252 39.2867 24.9462C40.1014 25.1672 40.9728 24.954 41.5935 24.3818L49.5367 17.06C50.6218 23.3708 49.9213 30.2283 49.0449 35.1618C48.5047 38.2035 46.0548 40.5403 42.8762 41.0309C32.5039 42.6326 22.4962 42.6326 12.1241 41.0313C8.94527 40.5407 6.49537 38.2039 5.95507 35.1621C5.07876 30.2287 4.37814 23.3712 5.46329 17.0606L13.405 24.381C14.0258 24.9532 14.897 25.1664 15.7119 24.9454C16.5267 24.7244 17.1709 24.1003 17.4175 23.2929C19.706 15.8001 23.8973 9.05362 27.003 5.17815ZM41.0215 18.2303C38.4336 11.5286 34.7229 5.72053 31.8273 2.10725C29.5758 -0.702418 25.4226 -0.702418 23.171 2.10725C20.2755 5.72041 16.565 11.5282 13.977 18.2295L7.94899 12.6731C5.67791 10.5797 1.62161 11.3861 0.890127 14.8375C-0.70979 22.3865 0.148323 30.5505 1.12002 36.0208C2.04722 41.2407 6.23243 45.0907 11.3749 45.8847C22.2436 47.5626 32.7567 47.5626 43.6254 45.8843C48.7675 45.0904 52.9526 41.2403 53.8798 36.0204C54.8517 30.5501 55.7097 22.3861 54.11 14.837C53.3785 11.3856 49.3222 10.5791 47.0511 12.6725L41.0215 18.2303Z" fill="white" fill-opacity="0.7"/>
</svg>
