<svg width="17" height="15" viewBox="0 0 17 15" fill="none" xmlns="http://www.w3.org/2000/svg">
<path d="M9.75 14.25H11.25M9.75 14.25C9.45163 14.25 9.16548 14.1315 8.9545 13.9205C8.74353 13.7095 8.625 13.4234 8.625 13.125V11.25H8.25M9.75 14.25H6.75M8.25 11.25H7.875V13.125C7.875 13.4234 7.75647 13.7095 7.5455 13.9205C7.33452 14.1315 7.04837 14.25 6.75 14.25M8.25 11.25V14.25M6.75 14.25H5.25M11.25 0.75H5.25C3.129 0.75 2.06775 0.75 1.40925 1.40925C0.75 2.06775 0.75 3.129 0.75 5.25V6.75C0.75 8.871 0.75 9.93225 1.40925 10.5908C2.06775 11.25 3.129 11.25 5.25 11.25H11.25C13.371 11.25 14.4323 11.25 15.0908 10.5908C15.75 9.93225 15.75 8.871 15.75 6.75V5.25C15.75 3.129 15.75 2.06775 15.0908 1.40925C14.4323 0.75 13.371 0.75 11.25 0.75Z" stroke="white" stroke-width="1.5" stroke-linecap="round" stroke-linejoin="round"/>
<path d="M8.25 6.375C8.64782 6.375 9.02936 6.21696 9.31066 5.93566C9.59196 5.65436 9.75 5.27282 9.75 4.875C9.75 4.47718 9.59196 4.09564 9.31066 3.81434C9.02936 3.53304 8.64782 3.375 8.25 3.375C7.85218 3.375 7.47064 3.53304 7.18934 3.81434C6.90804 4.09564 6.75 4.47718 6.75 4.875C6.75 5.27282 6.90804 5.65436 7.18934 5.93566C7.47064 6.21696 7.85218 6.375 8.25 6.375ZM8.25 6.375C7.65326 6.375 7.08097 6.61205 6.65901 7.03401C6.23705 7.45597 6 8.02826 6 8.625M8.25 6.375C8.84674 6.375 9.41903 6.61205 9.84099 7.03401C10.2629 7.45597 10.5 8.02826 10.5 8.625" stroke="white" stroke-width="1.5" stroke-linecap="round" stroke-linejoin="round"/>
</svg>
