<svg width="16" height="20" viewBox="0 0 16 20" fill="none" xmlns="http://www.w3.org/2000/svg">
<path d="M4.75 14.75H10.75M4.75 11.75H10.75M8.75 0.75H3.95C2.83 0.75 2.27 0.75 1.842 0.968C1.46569 1.15974 1.15974 1.46569 0.968 1.842C0.75 2.27 0.75 2.83 0.75 3.95V15.55C0.75 16.67 0.75 17.23 0.968 17.658C1.15974 18.0343 1.46569 18.3403 1.842 18.532C2.269 18.75 2.829 18.75 3.947 18.75H11.553C12.671 18.75 13.23 18.75 13.657 18.532C14.034 18.34 14.34 18.034 14.532 17.658C14.75 17.23 14.75 16.672 14.75 15.554V7.076L14.749 6.75M8.75 0.75C9.036 0.753 9.216 0.764 9.388 0.805C9.592 0.855 9.788 0.935 9.967 1.045C10.169 1.169 10.342 1.342 10.687 1.688L13.813 4.813C14.159 5.159 14.331 5.331 14.455 5.533C14.565 5.71367 14.645 5.90633 14.695 6.111C14.735 6.284 14.746 6.465 14.749 6.75M8.75 0.75V3.55C8.75 4.67 8.75 5.23 8.968 5.658C9.15974 6.03431 9.46569 6.34026 9.842 6.532C10.269 6.75 10.829 6.75 11.947 6.75H14.749" stroke="white" stroke-width="1.5" stroke-linecap="round" stroke-linejoin="round"/>
</svg>
