<svg width="18" height="18" viewBox="0 0 18 18" fill="none" xmlns="http://www.w3.org/2000/svg">
<path d="M9 15.75C9.90237 15.7501 10.7956 15.5692 11.6268 15.2181C12.4581 14.867 13.2105 14.3527 13.8396 13.7058C14.4687 13.0589 14.9617 12.2924 15.2894 11.4517C15.6172 10.6109 15.773 9.71301 15.7478 8.811C14.8038 9.46806 13.6701 9.79693 12.521 9.74708C11.3719 9.69723 10.271 9.27142 9.38748 8.53508C8.50393 7.79874 7.88663 6.79263 7.63045 5.67137C7.37427 4.5501 7.49339 3.37574 7.96951 2.32875C6.28817 2.58785 4.76668 3.47225 3.70943 4.805C2.65217 6.13775 2.13714 7.82057 2.26738 9.51675C2.39762 11.2129 3.16351 12.7974 4.41183 13.9531C5.66015 15.1089 7.29883 15.7506 9 15.75Z" stroke="#2F353E" stroke-width="1.5" stroke-linecap="round" stroke-linejoin="round"/>
</svg>
