<svg width="12" height="16" viewBox="0 0 12 16" fill="none" xmlns="http://www.w3.org/2000/svg">
<path d="M5.77724 10C5.0828 10 4.49252 9.75695 4.00641 9.27083C3.5203 8.78472 3.27724 8.19445 3.27724 7.5V2.5C3.27724 1.80556 3.5203 1.21528 4.00641 0.729167C4.49252 0.243056 5.0828 0 5.77724 0C6.47169 0 7.06197 0.243056 7.54808 0.729167C8.03419 1.21528 8.27724 1.80556 8.27724 2.5V7.5C8.27724 8.19445 8.03419 8.78472 7.54808 9.27083C7.06197 9.75695 6.47169 10 5.77724 10ZM4.94391 15V13.2708C3.66613 13.0903 2.57252 12.5486 1.66308 11.6458C0.753633 10.7431 0.20141 9.64583 0.00641024 8.35417C-0.0213675 8.11806 0.0411328 7.91667 0.193911 7.75C0.346688 7.58333 0.541133 7.5 0.777244 7.5C1.01335 7.5 1.21141 7.58 1.37141 7.74C1.53141 7.9 1.63891 8.09778 1.69391 8.33333C1.88836 9.30556 2.37113 10.1042 3.14224 10.7292C3.91336 11.3542 4.79169 11.6667 5.77724 11.6667C6.77724 11.6667 7.65919 11.3508 8.42308 10.7192C9.18697 10.0875 9.66613 9.29222 9.86058 8.33333C9.91613 8.09722 10.0239 7.89945 10.1839 7.74C10.3439 7.58056 10.5417 7.50056 10.7772 7.5C11.0128 7.49945 11.2072 7.58278 11.3606 7.75C11.5139 7.91722 11.5764 8.11861 11.5481 8.35417C11.3536 9.61806 10.805 10.7083 9.90225 11.625C8.99947 12.5417 7.90224 13.0903 6.61058 13.2708V15C6.61058 15.2361 6.53058 15.4342 6.37058 15.5942C6.21058 15.7542 6.0128 15.8339 5.77724 15.8333C5.54169 15.8328 5.34391 15.7528 5.18391 15.5933C5.02391 15.4339 4.94391 15.2361 4.94391 15ZM5.77724 8.33333C6.01336 8.33333 6.21141 8.25333 6.37141 8.09333C6.53141 7.93333 6.61113 7.73556 6.61058 7.5V2.5C6.61058 2.26389 6.53058 2.06611 6.37058 1.90667C6.21058 1.74722 6.0128 1.66722 5.77724 1.66667C5.54169 1.66611 5.34391 1.74611 5.18391 1.90667C5.02391 2.06722 4.94391 2.265 4.94391 2.5V7.5C4.94391 7.73611 5.02391 7.93417 5.18391 8.09417C5.34391 8.25417 5.54169 8.33389 5.77724 8.33333Z" fill="white"/>
</svg>
