<svg width="17" height="17" viewBox="0 0 17 17" fill="none" xmlns="http://www.w3.org/2000/svg">
<path d="M12 13.875C12 14.3723 12.1975 14.8492 12.5492 15.2008C12.9008 15.5525 13.3777 15.75 13.875 15.75C14.3723 15.75 14.8492 15.5525 15.2008 15.2008C15.5525 14.8492 15.75 14.3723 15.75 13.875C15.75 13.3777 15.5525 12.9008 15.2008 12.5492C14.8492 12.1975 14.3723 12 13.875 12C13.3777 12 12.9008 12.1975 12.5492 12.5492C12.1975 12.9008 12 13.3777 12 13.875ZM0.75 13.875C0.75 14.3723 0.947544 14.8492 1.29918 15.2008C1.65081 15.5525 2.12772 15.75 2.625 15.75C3.12228 15.75 3.59919 15.5525 3.95082 15.2008C4.30246 14.8492 4.5 14.3723 4.5 13.875C4.5 13.3777 4.30246 12.9008 3.95082 12.5492C3.59919 12.1975 3.12228 12 2.625 12C2.12772 12 1.65081 12.1975 1.29918 12.5492C0.947544 12.9008 0.75 13.3777 0.75 13.875ZM12 2.625C12 3.12228 12.1975 3.59919 12.5492 3.95082C12.9008 4.30246 13.3777 4.5 13.875 4.5C14.3723 4.5 14.8492 4.30246 15.2008 3.95082C15.5525 3.59919 15.75 3.12228 15.75 2.625C15.75 2.12772 15.5525 1.65081 15.2008 1.29918C14.8492 0.947544 14.3723 0.75 13.875 0.75C13.3777 0.75 12.9008 0.947544 12.5492 1.29918C12.1975 1.65081 12 2.12772 12 2.625ZM0.75 2.625C0.75 3.12228 0.947544 3.59919 1.29918 3.95082C1.65081 4.30246 2.12772 4.5 2.625 4.5C3.12228 4.5 3.59919 4.30246 3.95082 3.95082C4.30246 3.59919 4.5 3.12228 4.5 2.625C4.5 2.12772 4.30246 1.65081 3.95082 1.29918C3.59919 0.947544 3.12228 0.75 2.625 0.75C2.12772 0.75 1.65081 0.947544 1.29918 1.29918C0.947544 1.65081 0.75 2.12772 0.75 2.625Z" stroke="white" stroke-width="1.5" stroke-linecap="round" stroke-linejoin="round"/>
</svg>
