<svg width="20" height="19" viewBox="0 0 20 19" fill="none" xmlns="http://www.w3.org/2000/svg">
<path d="M1.75 7.21578L7.858 11.8278L7.86 11.8298C8.538 12.3268 8.877 12.5758 9.249 12.6718C9.57759 12.7568 9.92241 12.7568 10.251 12.6718C10.623 12.5758 10.963 12.3258 11.643 11.8278L17.75 7.21578M17.55 6.25578L11.951 1.77278C11.256 1.21578 10.908 0.937779 10.521 0.826779C10.1798 0.729395 9.81873 0.724563 9.475 0.812779C9.086 0.912779 8.731 1.18078 8.021 1.71778L2.02 6.25578C1.554 6.60778 1.321 6.78378 1.153 7.00578C1.0043 7.20304 0.893429 7.42613 0.826 7.66378C0.75 7.93178 0.75 8.22378 0.75 8.80778V15.0158C0.75 16.1358 0.75 16.6958 0.968 17.1238C1.16 17.5008 1.465 17.8058 1.842 17.9978C2.269 18.2158 2.829 18.2158 3.947 18.2158H15.553C16.671 18.2158 17.23 18.2158 17.657 17.9978C18.034 17.8058 18.34 17.4998 18.532 17.1238C18.75 16.6968 18.75 16.1368 18.75 15.0188V8.74278C18.75 8.18478 18.75 7.90478 18.679 7.64578C18.615 7.41494 18.5099 7.19749 18.369 7.00378C18.21 6.78378 17.991 6.60778 17.55 6.25478" stroke="white" stroke-width="1.5" stroke-linecap="round" stroke-linejoin="round"/>
</svg>
