<svg width="17" height="17" viewBox="0 0 17 17" fill="none" xmlns="http://www.w3.org/2000/svg">
<path d="M6.75 3.75C6.75 2.95435 6.43393 2.19129 5.87132 1.62868C5.30871 1.06607 4.54565 0.75 3.75 0.75C2.95435 0.75 2.19129 1.06607 1.62868 1.62868C1.06607 2.19129 0.75 2.95435 0.75 3.75C0.75 4.54565 1.06607 5.30871 1.62868 5.87132C2.19129 6.43393 2.95435 6.75 3.75 6.75C4.54565 6.75 5.30871 6.43393 5.87132 5.87132C6.43393 5.30871 6.75 4.54565 6.75 3.75ZM6.75 12.75C6.75 11.9543 6.43393 11.1913 5.87132 10.6287C5.30871 10.0661 4.54565 9.75 3.75 9.75C2.95435 9.75 2.19129 10.0661 1.62868 10.6287C1.06607 11.1913 0.75 11.9543 0.75 12.75C0.75 13.5456 1.06607 14.3087 1.62868 14.8713C2.19129 15.4339 2.95435 15.75 3.75 15.75C4.54565 15.75 5.30871 15.4339 5.87132 14.8713C6.43393 14.3087 6.75 13.5456 6.75 12.75ZM15.75 3.75C15.75 2.95435 15.4339 2.19129 14.8713 1.62868C14.3087 1.06607 13.5456 0.75 12.75 0.75C11.9543 0.75 11.1913 1.06607 10.6287 1.62868C10.0661 2.19129 9.75 2.95435 9.75 3.75C9.75 4.54565 10.0661 5.30871 10.6287 5.87132C11.1913 6.43393 11.9543 6.75 12.75 6.75C13.5456 6.75 14.3087 6.43393 14.8713 5.87132C15.4339 5.30871 15.75 4.54565 15.75 3.75ZM15.75 12.75C15.75 11.9543 15.4339 11.1913 14.8713 10.6287C14.3087 10.0661 13.5456 9.75 12.75 9.75C11.9543 9.75 11.1913 10.0661 10.6287 10.6287C10.0661 11.1913 9.75 11.9543 9.75 12.75C9.75 13.5456 10.0661 14.3087 10.6287 14.8713C11.1913 15.4339 11.9543 15.75 12.75 15.75C13.5456 15.75 14.3087 15.4339 14.8713 14.8713C15.4339 14.3087 15.75 13.5456 15.75 12.75Z" stroke="white" stroke-width="1.5"/>
</svg>
