<svg width="14" height="16" viewBox="0 0 14 16" fill="none" xmlns="http://www.w3.org/2000/svg">
<path d="M3.375 14.625H9.687C10.3832 14.625 11.0509 14.3484 11.5432 13.8562C12.0354 13.3639 12.312 12.6962 12.312 12V7.8525C12.3122 7.1564 12.036 6.48869 11.544 5.99625L7.06725 1.51875C6.82348 1.275 6.53408 1.08166 6.21558 0.949754C5.89709 0.817852 5.55573 0.749975 5.211 0.75H3.375C2.67881 0.75 2.01113 1.02656 1.51884 1.51884C1.02656 2.01113 0.75 2.67881 0.75 3.375V12C0.75 12.6962 1.02656 13.3639 1.51884 13.8562C2.01113 14.3484 2.67881 14.625 3.375 14.625Z" stroke="white" stroke-width="1.5" stroke-linecap="round" stroke-linejoin="round"/>
<path fill-rule="evenodd" clip-rule="evenodd" d="M5.35884 4.04328C5.17959 4.10178 5.06484 4.22028 5.03184 4.35153C4.96434 4.61553 5.03184 4.89903 5.22159 5.25378C5.31609 5.42928 5.43159 5.60703 5.55909 5.79753L5.62809 5.90028L5.73684 6.06153L5.75109 6.01053L5.81559 5.78103C5.88959 5.52953 5.94709 5.27453 5.98809 5.01603C6.05484 4.53453 5.97984 4.25253 5.75634 4.07103C5.69634 4.02228 5.54784 3.98178 5.35884 4.04328ZM5.40009 7.15728L5.19759 6.88578L5.17359 6.84978C5.08734 6.70728 4.99134 6.56478 4.88709 6.41103L4.81209 6.29928C4.67408 6.09863 4.54593 5.89139 4.42809 5.67828C4.19559 5.24478 4.00959 4.71378 4.15959 4.12803C4.28709 3.63003 4.68309 3.31728 5.07984 3.18753C5.46759 3.06153 5.96034 3.07728 6.32484 3.37278C6.91884 3.85578 6.96084 4.55253 6.87909 5.14053C6.83354 5.43806 6.76815 5.73222 6.68334 6.02103L6.61134 6.27603C6.55534 6.46703 6.50334 6.65928 6.45534 6.85278L6.40509 6.99828L7.44909 8.39628C7.93659 8.33778 8.47209 8.30253 8.97159 8.33853C9.54834 8.37903 10.1678 8.52003 10.5901 8.92053C10.726 9.0615 10.8243 9.23431 10.876 9.42313C10.9278 9.61194 10.9313 9.81073 10.8863 10.0013C10.7986 10.3613 10.5458 10.6613 10.1971 10.8435C9.45834 11.2298 8.77059 10.9223 8.25984 10.5315C7.86009 10.2263 7.47609 9.80028 7.15284 9.44178L7.07484 9.35628C6.79734 9.39903 6.53484 9.44703 6.32184 9.48753C6.09309 9.53028 5.80884 9.58353 5.49984 9.65253L5.38659 9.98478C5.32409 10.1288 5.26459 10.2738 5.20809 10.4198L5.11659 10.647C5.02425 10.881 4.91729 11.109 4.79634 11.3295C4.54884 11.763 4.15359 12.2235 3.49059 12.2603C2.60259 12.3098 2.00109 11.5215 2.17359 10.6793L2.17809 10.659C2.32809 10.0658 2.84859 9.67653 3.35184 9.41928C3.79959 9.18978 4.32234 9.02028 4.80759 8.89353L5.40009 7.15728ZM6.05259 8.03103L5.83734 8.66328L6.15309 8.60328L6.15609 8.60253L6.44109 8.55003L6.05259 8.03103ZM8.18259 9.23403C8.38809 9.45153 8.59284 9.65403 8.80584 9.81678C9.21834 10.1318 9.51084 10.1865 9.78009 10.0455C9.93009 9.96678 9.99309 9.86478 10.0118 9.78903C10.0209 9.74841 10.0202 9.70621 10.0098 9.66591C9.99936 9.62562 9.9795 9.58838 9.95184 9.55728C9.75909 9.38628 9.41034 9.27228 8.90784 9.23628C8.66636 9.2209 8.42416 9.22015 8.18259 9.23403ZM4.42884 9.94428C4.19034 10.026 3.96384 10.1168 3.76134 10.2203C3.32109 10.4453 3.10884 10.6733 3.05334 10.8705C2.99484 11.1818 3.19734 11.3753 3.44034 11.3618C3.64284 11.3505 3.81984 11.2238 4.01484 10.8825C4.11684 10.6965 4.20634 10.5048 4.28334 10.3073L4.36359 10.1078L4.42884 9.94428Z" fill="white"/>
</svg>
