<svg width="15" height="15" viewBox="0 0 15 15" fill="none" xmlns="http://www.w3.org/2000/svg">
<path d="M12.75 14.25L7.5 9L5.7375 10.7625C5.8375 10.95 5.90625 11.15 5.94375 11.3625C5.98125 11.575 6 11.7875 6 12C6 12.825 5.70625 13.5312 5.11875 14.1187C4.53125 14.7062 3.825 15 3 15C2.175 15 1.46875 14.7062 0.88125 14.1187C0.29375 13.5312 0 12.825 0 12C0 11.175 0.29375 10.4687 0.88125 9.88125C1.46875 9.29375 2.175 9 3 9C3.2125 9 3.425 9.01875 3.6375 9.05625C3.85 9.09375 4.05 9.1625 4.2375 9.2625L6 7.5L4.2375 5.7375C4.05 5.8375 3.85 5.90625 3.6375 5.94375C3.425 5.98125 3.2125 6 3 6C2.175 6 1.46875 5.70625 0.88125 5.11875C0.29375 4.53125 0 3.825 0 3C0 2.175 0.29375 1.46875 0.88125 0.88125C1.46875 0.29375 2.175 0 3 0C3.825 0 4.53125 0.29375 5.11875 0.88125C5.70625 1.46875 6 2.175 6 3C6 3.2125 5.98125 3.425 5.94375 3.6375C5.90625 3.85 5.8375 4.05 5.7375 4.2375L15 13.5V14.25H12.75ZM9.75 6.75L8.25 5.25L12.75 0.75H15V1.5L9.75 6.75ZM3 4.5C3.4125 4.5 3.76575 4.35325 4.05975 4.05975C4.35375 3.76625 4.5005 3.413 4.5 3C4.4995 2.587 4.35275 2.234 4.05975 1.941C3.76675 1.648 3.4135 1.501 3 1.5C2.5865 1.499 2.2335 1.646 1.941 1.941C1.6485 2.236 1.5015 2.589 1.5 3C1.4985 3.411 1.6455 3.76425 1.941 4.05975C2.2365 4.35525 2.5895 4.502 3 4.5ZM7.5 7.875C7.6 7.875 7.6875 7.8375 7.7625 7.7625C7.8375 7.6875 7.875 7.6 7.875 7.5C7.875 7.4 7.8375 7.3125 7.7625 7.2375C7.6875 7.1625 7.6 7.125 7.5 7.125C7.4 7.125 7.3125 7.1625 7.2375 7.2375C7.1625 7.3125 7.125 7.4 7.125 7.5C7.125 7.6 7.1625 7.6875 7.2375 7.7625C7.3125 7.8375 7.4 7.875 7.5 7.875ZM3 13.5C3.4125 13.5 3.76575 13.3532 4.05975 13.0597C4.35375 12.7662 4.5005 12.413 4.5 12C4.4995 11.587 4.35275 11.234 4.05975 10.941C3.76675 10.648 3.4135 10.501 3 10.5C2.5865 10.499 2.2335 10.646 1.941 10.941C1.6485 11.236 1.5015 11.589 1.5 12C1.4985 12.411 1.6455 12.7642 1.941 13.0597C2.2365 13.3552 2.5895 13.502 3 13.5Z" fill="white"/>
</svg>
