<svg width="18" height="18" viewBox="0 0 18 18" fill="none" xmlns="http://www.w3.org/2000/svg">
<path d="M3.56152 10.5947C3.98079 10.0332 4.5254 9.57734 5.15197 9.2635C5.77854 8.94966 6.46975 8.78649 7.17052 8.78699C8.22224 8.78699 9.18909 9.14699 9.95538 9.75127" stroke="white" stroke-width="1.5" stroke-linecap="round" stroke-linejoin="round"/>
<path d="M6.52644 13.6071H2.02644C1.68544 13.6071 1.35842 13.4717 1.1173 13.2306C0.876181 12.9894 0.740723 12.6624 0.740723 12.3214V2.03571C0.740723 1.69472 0.876181 1.3677 1.1173 1.12658C1.35842 0.885459 1.68544 0.75 2.02644 0.75H12.3122C12.6531 0.75 12.9802 0.885459 13.2213 1.12658C13.4624 1.3677 13.5979 1.69472 13.5979 2.03571V5.89286" stroke="white" stroke-width="1.5" stroke-linecap="round" stroke-linejoin="round"/>
<path d="M7.16929 6.85714C7.42256 6.85714 7.67334 6.80726 7.90733 6.71034C8.14131 6.61342 8.35392 6.47136 8.533 6.29228C8.71208 6.11319 8.85414 5.90059 8.95106 5.6666C9.04798 5.43262 9.09787 5.18183 9.09787 4.92857C9.09787 4.67531 9.04798 4.42452 8.95106 4.19054C8.85414 3.95655 8.71208 3.74395 8.533 3.56487C8.35392 3.38578 8.14131 3.24372 7.90733 3.1468C7.67334 3.04988 7.42256 3 7.16929 3C6.65781 3 6.16727 3.20319 5.80559 3.56487C5.44391 3.92654 5.24072 4.41708 5.24072 4.92857C5.24072 5.44006 5.44391 5.9306 5.80559 6.29228C6.16727 6.65395 6.65781 6.85714 7.16929 6.85714ZM9.43729 13.5223C8.98601 13.4439 8.98601 12.7959 9.43729 12.7174C10.2361 12.5777 10.9753 12.2036 11.5609 11.6427C12.1465 11.0818 12.5521 10.3594 12.7262 9.56743L12.7532 9.44271C12.8509 8.99657 13.486 8.994 13.5876 9.43886L13.621 9.58414C13.8006 10.3731 14.2095 11.0913 14.7963 11.6484C15.3832 12.2054 16.1217 12.5765 16.9189 12.7149C17.3727 12.7946 17.3727 13.4451 16.9189 13.5249C16.1217 13.6632 15.3832 14.0343 14.7963 14.5913C14.2095 15.1484 13.8006 15.8666 13.621 16.6556L13.5876 16.8009C13.486 17.2457 12.8509 17.2431 12.7532 16.797L12.7262 16.6723C12.5521 15.8803 12.1465 15.1579 11.5609 14.597C10.9753 14.0361 10.2361 13.662 9.43729 13.5223Z" stroke="white" stroke-width="1.5" stroke-linecap="round" stroke-linejoin="round"/>
</svg>
