<svg width="43" height="51" viewBox="0 0 43 51" fill="none" xmlns="http://www.w3.org/2000/svg">
<path fill-rule="evenodd" clip-rule="evenodd" d="M21.2309 5.1C15.5976 5.1 11.0309 9.6667 11.0309 15.3C11.0309 20.9333 15.5976 25.5 21.2309 25.5C26.8642 25.5 31.4309 20.9333 31.4309 15.3C31.4309 9.6667 26.8642 5.1 21.2309 5.1ZM30.5154 27.4619C34.1721 24.6661 36.5309 20.2585 36.5309 15.3C36.5309 6.85004 29.6808 0 21.2309 0C12.7809 0 5.93089 6.85004 5.93089 15.3C5.93089 20.2585 8.28967 24.6661 11.9464 27.4619C9.3824 28.5961 7.02357 30.2011 5.00279 32.2219C3.44237 33.7823 2.12971 35.5445 1.09041 37.447C-0.827494 40.9579 -0.0453424 44.5376 2.11454 47.0689C4.19382 49.5057 7.52469 51 11.0309 51H31.4309C34.9371 51 38.268 49.5057 40.3472 47.0689C42.5071 44.5376 43.2893 40.9579 41.3714 37.447C40.3321 35.5445 39.0194 33.7823 37.459 32.2219C35.4382 30.2011 33.0794 28.5961 30.5154 27.4619ZM21.2309 30.6C16.4968 30.6 11.9566 32.4806 8.60903 35.8281C7.39522 37.0419 6.37442 38.4124 5.56612 39.892C4.78337 41.3249 5.03587 42.6354 5.99414 43.7585C7.033 44.976 8.90377 45.9 11.0309 45.9H31.4309C33.558 45.9 35.4288 44.976 36.4676 43.7585C37.4259 42.6354 37.6784 41.3249 36.8957 39.892C36.0874 38.4124 35.0666 37.042 33.8527 35.8281C30.5052 32.4806 25.965 30.6 21.2309 30.6Z" fill="white" fill-opacity="0.7"/>
</svg>
